<?xml version="1.0" encoding="UTF-8" standalone="no"?>
<svg
   xmlns:dc="http://purl.org/dc/elements/1.1/"
   xmlns:cc="http://creativecommons.org/ns#"
   xmlns:rdf="http://www.w3.org/1999/02/22-rdf-syntax-ns#"
   xmlns:svg="http://www.w3.org/2000/svg"
   xmlns="http://www.w3.org/2000/svg"
   xmlns:sodipodi="http://sodipodi.sourceforge.net/DTD/sodipodi-0.dtd"
   xmlns:inkscape="http://www.inkscape.org/namespaces/inkscape"
   version="1.1"
   x="0px"
   y="0px"
   viewBox="0 0 100 100"
   style="enable-background:new 0 0 100 100;"
   xml:space="preserve"
   id="svg2"
   inkscape:version="0.91 r13725"
   sodipodi:docname="625372.svg"><metadata
     id="metadata12"><rdf:RDF><cc:Work
         rdf:about=""><dc:format>image/svg+xml</dc:format><dc:type
           rdf:resource="http://purl.org/dc/dcmitype/StillImage" /></cc:Work></rdf:RDF></metadata><defs
     id="defs10" /><sodipodi:namedview
     pagecolor="#ffffff"
     bordercolor="#666666"
     borderopacity="1"
     objecttolerance="10"
     gridtolerance="10"
     guidetolerance="10"
     inkscape:pageopacity="0"
     inkscape:pageshadow="2"
     inkscape:window-width="1875"
     inkscape:window-height="1176"
     id="namedview8"
     showgrid="false"
     inkscape:zoom="5.6568543"
     inkscape:cx="71.386574"
     inkscape:cy="54.605132"
     inkscape:window-x="45"
     inkscape:window-y="24"
     inkscape:window-maximized="1"
     inkscape:current-layer="svg2"
     showguides="true"
     inkscape:guide-bbox="true" /><style
     type="text/css"
     id="style4">
	.st0{fill:none;stroke:#000000;stroke-width:4;stroke-miterlimit:10;}
</style><g
     id="g3422"
     transform="translate(-0.75359417,-1.5215641)"><path
       style="opacity:1;fill:#bbbdc0;fill-opacity:1;stroke:none;stroke-width:5;stroke-miterlimit:4;stroke-dasharray:none;stroke-opacity:1"
       d="m 82.619922,64.378966 -0.493899,3.640343 -31.474396,-4.270251 0.493897,-3.640341 z"
       id="path3380"
       inkscape:connector-curvature="0"
       inkscape:transform-center-x="-13.225121"
       inkscape:transform-center-y="1.780572" /><path
       inkscape:connector-curvature="0"
       id="path3386"
       d="m 95.350715,66.578448 a 7.9205255,7.9205255 0 0 1 -7.484665,8.333619 7.9205255,7.9205255 0 0 1 -8.333621,-7.484665 7.9205255,7.9205255 0 0 1 7.484667,-8.333621 7.9205255,7.9205255 0 0 1 8.333619,7.484667 z"
       style="fill:#bbbdc0;fill-opacity:1;fill-rule:evenodd;stroke:none;stroke-width:1px;stroke-linecap:butt;stroke-linejoin:miter;stroke-opacity:1" /><path
       style="opacity:1;fill:#404040;fill-opacity:1;stroke:none;stroke-width:5;stroke-miterlimit:4;stroke-dasharray:none;stroke-opacity:1"
       d="M 21.740083,86.179433 19.531775,83.243552 49.759368,60.507 l 2.208307,2.93588 z"
       id="path3382"
       inkscape:connector-curvature="0"
       inkscape:transform-center-x="12.691295"
       inkscape:transform-center-y="9.5631476" /><path
       inkscape:connector-curvature="0"
       id="path3360"
       d="M 69.898722,60.89889 A 19.068961,19.068961 0 0 1 51.879109,80.962391 19.068961,19.068961 0 0 1 31.815608,62.942777 a 19.068961,19.068961 0 0 1 18.019614,-20.0635 19.068961,19.068961 0 0 1 20.0635,18.019613 z"
       style="fill:#404040;fill-opacity:1;fill-rule:evenodd;stroke:none;stroke-width:1px;stroke-linecap:butt;stroke-linejoin:miter;stroke-opacity:1" /><path
       inkscape:transform-center-y="-16.409306"
       inkscape:transform-center-x="10.755045"
       inkscape:connector-curvature="0"
       id="rect3363"
       d="m 23.734479,23.864376 3.073944,-2.011688 25.572317,39.07556 -3.073942,2.011689 z"
       style="opacity:1;fill:#404040;fill-opacity:1;stroke:none;stroke-width:5;stroke-miterlimit:4;stroke-dasharray:none;stroke-opacity:1" /><path
       style="fill:#404040;fill-opacity:1;fill-rule:evenodd;stroke:none;stroke-width:1px;stroke-linecap:butt;stroke-linejoin:miter;stroke-opacity:1"
       d="M 34.126882,16.426528 A 12.574726,12.574726 0 0 1 22.244132,29.657089 12.574726,12.574726 0 0 1 9.0135714,17.774338 12.574726,12.574726 0 0 1 20.896323,4.5437771 12.574726,12.574726 0 0 1 34.126882,16.426528 Z"
       id="path3384"
       inkscape:connector-curvature="0" /><path
       style="fill:#404040;fill-opacity:1;fill-rule:evenodd;stroke:none;stroke-width:1px;stroke-linecap:butt;stroke-linejoin:miter;stroke-opacity:1"
       d="m 24.570586,88.803965 a 9.2193723,9.2193723 0 0 1 -8.712038,9.700208 9.2193723,9.2193723 0 0 1 -9.700208,-8.712038 9.2193723,9.2193723 0 0 1 8.712039,-9.700209 9.2193723,9.2193723 0 0 1 9.700207,8.712039 z"
       id="path3388"
       inkscape:connector-curvature="0" /></g></svg>