<?xml version="1.0" encoding="UTF-8" standalone="no"?>
<svg
   xmlns:dc="http://purl.org/dc/elements/1.1/"
   xmlns:cc="http://creativecommons.org/ns#"
   xmlns:rdf="http://www.w3.org/1999/02/22-rdf-syntax-ns#"
   xmlns:svg="http://www.w3.org/2000/svg"
   xmlns="http://www.w3.org/2000/svg"
   xmlns:sodipodi="http://sodipodi.sourceforge.net/DTD/sodipodi-0.dtd"
   xmlns:inkscape="http://www.inkscape.org/namespaces/inkscape"
   version="1.1"
   x="0px"
   y="0px"
   viewBox="0 0 100 100"
   style="enable-background:new 0 0 100 100;"
   xml:space="preserve"
   id="svg2"
   inkscape:version="0.91 r13725"
   sodipodi:docname="625372.svg"><metadata
     id="metadata12"><rdf:RDF><cc:Work
         rdf:about=""><dc:format>image/svg+xml</dc:format><dc:type
           rdf:resource="http://purl.org/dc/dcmitype/StillImage" /></cc:Work></rdf:RDF></metadata><defs
     id="defs10" /><sodipodi:namedview
     pagecolor="#ffffff"
     bordercolor="#666666"
     borderopacity="1"
     objecttolerance="10"
     gridtolerance="10"
     guidetolerance="10"
     inkscape:pageopacity="0"
     inkscape:pageshadow="2"
     inkscape:window-width="1881"
     inkscape:window-height="1176"
     id="namedview8"
     showgrid="false"
     inkscape:zoom="5.6568543"
     inkscape:cx="44.604905"
     inkscape:cy="54.605132"
     inkscape:window-x="39"
     inkscape:window-y="24"
     inkscape:window-maximized="1"
     inkscape:current-layer="svg2"
     showguides="true"
     inkscape:guide-bbox="true" /><style
     type="text/css"
     id="style4">
	.st0{fill:none;stroke:#000000;stroke-width:4;stroke-miterlimit:10;}
</style><path
     inkscape:transform-center-y="1.780572"
     inkscape:transform-center-x="-13.225121"
     inkscape:connector-curvature="0"
     id="path3380"
     d="M 81.866328,62.857402 81.372429,66.497745 49.898033,62.227494 50.39193,58.587153 Z"
     style="opacity:1;fill:#404040;fill-opacity:1;stroke:none;stroke-width:5;stroke-miterlimit:4;stroke-dasharray:none;stroke-opacity:1" /><path
     style="fill:#404040;fill-opacity:1;fill-rule:evenodd;stroke:none;stroke-width:1px;stroke-linecap:butt;stroke-linejoin:miter;stroke-opacity:1"
     d="m 94.597121,65.056884 a 7.9205255,7.9205255 0 0 1 -7.484665,8.333619 7.9205255,7.9205255 0 0 1 -8.333621,-7.484665 7.9205255,7.9205255 0 0 1 7.484667,-8.333621 7.9205255,7.9205255 0 0 1 8.333619,7.484667 z"
     id="path3386"
     inkscape:connector-curvature="0" /><path
     inkscape:transform-center-y="9.5631476"
     inkscape:transform-center-x="12.691295"
     inkscape:connector-curvature="0"
     id="path3382"
     d="m 20.986489,84.657869 -2.208308,-2.935881 30.227593,-22.736552 2.208307,2.93588 z"
     style="opacity:1;fill:#404040;fill-opacity:1;stroke:none;stroke-width:5;stroke-miterlimit:4;stroke-dasharray:none;stroke-opacity:1" /><path
     style="fill:#404040;fill-opacity:1;fill-rule:evenodd;stroke:none;stroke-width:1px;stroke-linecap:butt;stroke-linejoin:miter;stroke-opacity:1"
     d="M 69.145128,59.377326 A 19.068961,19.068961 0 0 1 51.125515,79.440827 19.068961,19.068961 0 0 1 31.062014,61.421213 a 19.068961,19.068961 0 0 1 18.019614,-20.0635 19.068961,19.068961 0 0 1 20.0635,18.019613 z"
     id="path3360"
     inkscape:connector-curvature="0" /><path
     style="opacity:1;fill:#404040;fill-opacity:1;stroke:none;stroke-width:5;stroke-miterlimit:4;stroke-dasharray:none;stroke-opacity:1"
     d="m 22.980885,22.342812 3.073944,-2.011688 25.572317,39.07556 -3.073942,2.011689 z"
     id="rect3363"
     inkscape:connector-curvature="0"
     inkscape:transform-center-x="10.755045"
     inkscape:transform-center-y="-16.409306" /><path
     inkscape:connector-curvature="0"
     id="path3384"
     d="M 33.373288,14.904964 A 12.574726,12.574726 0 0 1 21.490538,28.135525 12.574726,12.574726 0 0 1 8.2599772,16.252774 12.574726,12.574726 0 0 1 20.142729,3.022213 12.574726,12.574726 0 0 1 33.373288,14.904964 Z"
     style="fill:#404040;fill-opacity:1;fill-rule:evenodd;stroke:none;stroke-width:1px;stroke-linecap:butt;stroke-linejoin:miter;stroke-opacity:1" /><path
     inkscape:connector-curvature="0"
     id="path3388"
     d="m 23.816992,87.282401 a 9.2193723,9.2193723 0 0 1 -8.712038,9.700208 9.2193723,9.2193723 0 0 1 -9.7002082,-8.712038 9.2193723,9.2193723 0 0 1 8.7120392,-9.700209 9.2193723,9.2193723 0 0 1 9.700207,8.712039 z"
     style="fill:#404040;fill-opacity:1;fill-rule:evenodd;stroke:none;stroke-width:1px;stroke-linecap:butt;stroke-linejoin:miter;stroke-opacity:1" /></svg>