<?xml version="1.0" encoding="UTF-8" standalone="no"?>
<!-- Created with Inkscape (http://www.inkscape.org/) -->

<svg
   xmlns:dc="http://purl.org/dc/elements/1.1/"
   xmlns:cc="http://creativecommons.org/ns#"
   xmlns:rdf="http://www.w3.org/1999/02/22-rdf-syntax-ns#"
   xmlns:svg="http://www.w3.org/2000/svg"
   xmlns="http://www.w3.org/2000/svg"
   xmlns:sodipodi="http://sodipodi.sourceforge.net/DTD/sodipodi-0.dtd"
   xmlns:inkscape="http://www.inkscape.org/namespaces/inkscape"
   id="svg2"
   version="1.1"
   inkscape:version="0.91 r13725"
   width="23"
   height="23"
   viewBox="0 0 23 23"
   sodipodi:docname="icon.svg"
   inkscape:export-filename="/home/vassilis/Source/jigsaw-redo/assets/touch/apple-touch-icon.png"
   inkscape:export-xdpi="594.78003"
   inkscape:export-ydpi="594.78003">
  <metadata
     id="metadata8">
    <rdf:RDF>
      <cc:Work
         rdf:about="">
        <dc:format>image/svg+xml</dc:format>
        <dc:type
           rdf:resource="http://purl.org/dc/dcmitype/StillImage" />
        <dc:title />
      </cc:Work>
    </rdf:RDF>
  </metadata>
  <defs
     id="defs6" />
  <sodipodi:namedview
     pagecolor="#ffffff"
     bordercolor="#666666"
     borderopacity="1"
     objecttolerance="10"
     gridtolerance="10"
     guidetolerance="10"
     inkscape:pageopacity="0"
     inkscape:pageshadow="2"
     inkscape:window-width="1753"
     inkscape:window-height="1290"
     id="namedview4"
     showgrid="false"
     fit-margin-top="0"
     fit-margin-left="0"
     fit-margin-right="0"
     fit-margin-bottom="0"
     inkscape:zoom="26.113415"
     inkscape:cx="5.1062685"
     inkscape:cy="5.6042401"
     inkscape:window-x="326"
     inkscape:window-y="350"
     inkscape:window-maximized="0"
     inkscape:current-layer="svg2" />
  <rect
     rx="5.646647"
     y="0.51523751"
     x="0.51523751"
     height="21.969524"
     width="21.969524"
     id="rect4276"
     style="color:#000000;clip-rule:nonzero;display:inline;overflow:visible;visibility:visible;opacity:1;isolation:auto;mix-blend-mode:normal;color-interpolation:sRGB;color-interpolation-filters:linearRGB;solid-color:#000000;solid-opacity:1;fill:#ffffff;fill-opacity:1;fill-rule:nonzero;stroke:none;stroke-width:1.03047502;stroke-linecap:round;stroke-linejoin:miter;stroke-miterlimit:4;stroke-dasharray:none;stroke-dashoffset:0;stroke-opacity:1;color-rendering:auto;image-rendering:auto;shape-rendering:auto;text-rendering:auto;enable-background:accumulate"
     inkscape:export-filename="/home/vassilis/Source/jigsaw-redo/assets/touch/ms-touch-icon-144x144-precomposed.png"
     inkscape:export-xdpi="563.47998"
     inkscape:export-ydpi="563.47998" />
  <path
     style="fill:#000000"
     d=""
     id="path4138"
     inkscape:connector-curvature="0" />
  <path
     inkscape:connector-curvature="0"
     style="fill:#b7b9ba"
     d="m 10.521184,8.1086172 c -0.49552,-0.367362 -0.5264296,-0.523299 -0.20734,-1.045929 0.93636,-1.53363 0.051,-2.204698 -2.5501296,-1.932831 -1.68171,0.175773 -1.80614,0.142509 -2.42901,-0.649342 -0.4623,-0.532911 -2.64531,-2.718319 -2.14333,-3.046332 1.88785,-1.23359999 14.3848896,-1.00587199 16.9145096,0.282156 -0.39155,1.172649 -1.41094,3.040599 -2.97216,3.216755 -1.64792,0.185938 0.0214,0.104713 -2.31233,0.197543 -2.58276,-0.26995 -3.50271,0.404913 -2.57562,1.889424 0.27993,0.448242 0.27201,0.67392 -0.0367,1.045929 -0.48816,0.588201 -0.9367,0.599529 -1.68788,0.04263 z"
     id="path4178"
     sodipodi:nodetypes="csscscscsccc"
     inkscape:export-filename="/home/vassilis/Source/jigsaw-redo/assets/touch/ms-touch-icon-144x144-precomposed.png"
     inkscape:export-xdpi="563.47998"
     inkscape:export-ydpi="563.47998" />
  <path
     inkscape:connector-curvature="0"
     id="path4146"
     d="m 4.1440344,5.1893872 c 0.87306,0.89313 0.84097,1.337302 0.65666,3.32044 -0.21398,2.3023138 0.0648,2.7584758 1.28628,2.1047578 0.53588,-0.286791 0.88082,-0.308967 1.2464,-0.08013 0.68728,0.430212 0.79721,1.721286 0.19762,2.320878 -0.45389,0.453894 -0.5566,0.451326 -1.37897,-0.03446 -1.22044,-0.720933 -1.54409,-0.186216 -1.32532,2.189607 0.1545,1.677822 -0.008,1.647438 -0.60856,2.55 -0.48386,0.640948 -1.61681,2.452558 -2.18159,2.347404 C -0.14769557,19.50121 0.39113443,7.0508942 0.93626443,4.0979622 1.1408844,2.9895652 3.6027144,4.7461502 4.1440344,5.1893872 Z"
     style="fill:#a2c052"
     sodipodi:nodetypes="csssssscssc"
     inkscape:export-filename="/home/vassilis/Source/jigsaw-redo/assets/touch/ms-touch-icon-144x144-precomposed.png"
     inkscape:export-xdpi="563.47998"
     inkscape:export-ydpi="563.47998" />
  <path
     inkscape:connector-curvature="0"
     id="path4144"
     d="m 17.982994,17.85709 c -0.15506,-0.70353 -0.0462,-1.213894 0.0871,-2.830072 0.19306,-2.339895 -0.0894,-2.8218 -1.34819,-2.300382 -1.22919,0.509148 -1.83309,0.232365 -1.83309,-0.840141 0,-1.285407 0.69581,-1.748943 1.66857,-1.111566 0.63759,0.417765 0.85268,0.438252 1.23858,0.117984 0.37178,-0.308544 0.43044,-0.779106 0.2877,-2.3076418 -0.15207,-1.628541 -0.0894,-2.034378 0.41293,-2.672952 0.40853,-0.382698 3.32302,-2.844685 3.50112,-1.76625 0.60556,3.666795 1.82775,17.6600548 -1.67255,16.6036168 0,0 -2.18712,-2.189066 -2.34217,-2.892596 z"
     style="fill:#5089c7"
     sodipodi:nodetypes="zsssssscscz"
     inkscape:export-filename="/home/vassilis/Source/jigsaw-redo/assets/touch/ms-touch-icon-144x144-precomposed.png"
     inkscape:export-xdpi="563.47998"
     inkscape:export-ydpi="563.47998" />
  <path
     inkscape:connector-curvature="0"
     id="path4142"
     d="m 2.9956244,21.054064 2.1236,-2.555955 c 0.6762,-0.813867 0.62878,-0.419899 2.54316,-0.240139 2.32977,0.21876 3.0742796,-0.08017 2.5014996,-1.0044 -0.6138496,-0.990474 -0.4563896,-1.797129 0.41549,-2.12862 0.60089,-0.228456 0.96068,-0.189039 1.5,0.16434 0.83859,0.549465 0.86082,0.701526 0.23347,1.597191 -0.38687,0.55233 -0.40524,0.764952 -0.0981,1.135068 0.29946,0.360828 0.76383,0.414108 2.23551,0.256503 1.77351,-0.189924 1.93799,-0.199364 2.65019,0.656685 l 2.01806,2.425683 c 2.56953,1.858239 -17.7586196,2.301224 -16.1228796,-0.306356 z"
     style="fill:#d25d35"
     sodipodi:nodetypes="csssssscsscc"
     inkscape:export-filename="/home/vassilis/Source/jigsaw-redo/assets/touch/ms-touch-icon-144x144-precomposed.png"
     inkscape:export-xdpi="563.47998"
     inkscape:export-ydpi="563.47998" />
  <path
     style="color:#000000;font-style:normal;font-variant:normal;font-weight:normal;font-stretch:normal;font-size:medium;line-height:normal;font-family:sans-serif;text-indent:0;text-align:start;text-decoration:none;text-decoration-line:none;text-decoration-style:solid;text-decoration-color:#000000;letter-spacing:normal;word-spacing:normal;text-transform:none;direction:ltr;block-progression:tb;writing-mode:lr-tb;baseline-shift:baseline;text-anchor:start;white-space:normal;clip-rule:nonzero;display:inline;overflow:visible;visibility:visible;opacity:1;isolation:auto;mix-blend-mode:normal;color-interpolation:sRGB;color-interpolation-filters:linearRGB;solid-color:#000000;solid-opacity:1;fill:#ffffff;fill-opacity:1;fill-rule:nonzero;stroke:none;stroke-width:1.03047502;stroke-linecap:round;stroke-linejoin:miter;stroke-miterlimit:4;stroke-dasharray:none;stroke-dashoffset:0;stroke-opacity:1;color-rendering:auto;image-rendering:auto;shape-rendering:auto;text-rendering:auto;enable-background:accumulate"
     d="M 6.1621094,0 C 2.7573376,0 0,2.7573376 0,6.1621094 L 0,16.837891 C 0,20.242662 2.7573376,23 6.1621094,23 L 16.837891,23 C 20.242662,23 23,20.242662 23,16.837891 L 23,6.1621094 C 23,2.7573376 20.242662,0 16.837891,0 L 6.1621094,0 Z m 0,1.03125 10.6757816,0 c 2.851713,0 5.130859,2.2791463 5.130859,5.1308594 l 0,10.6757816 c 0,2.851713 -2.279146,5.130859 -5.130859,5.130859 l -10.6757816,0 c -2.8517131,0 -5.1308594,-2.279146 -5.1308594,-5.130859 l 0,-10.6757816 C 1.03125,3.3103963 3.3103963,1.03125 6.1621094,1.03125 Z"
     id="rect4274"
     inkscape:connector-curvature="0" />
</svg>
